<?xml version="1.0" encoding="utf-8"?>
<!-- Generator: Adobe Illustrator 23.0.3, SVG Export Plug-In . SVG Version: 6.00 Build 0)  -->
<svg version="1.1" id="Layer_1" xmlns="http://www.w3.org/2000/svg" xmlns:xlink="http://www.w3.org/1999/xlink" x="0px" y="0px"
	 viewBox="0 0 409.54 213.02" style="enable-background:new 0 0 409.54 213.02;" xml:space="preserve">
<style type="text/css">
	.st0{fill:#F8E9DA;fill-opacity:0.63;}
	.st1{fill:url(#SVGID_1_);}
	.st2{fill:url(#SVGID_2_);}
	.st3{fill:url(#SVGID_3_);}
	.st4{fill:url(#SVGID_4_);}
	.st5{fill:url(#SVGID_5_);}
	.st6{fill:url(#SVGID_6_);}
</style>
<rect x="11.46" y="27.24" class="st0" width="371.19" height="81.35"/>
<g>
	<g>
		
			<linearGradient id="SVGID_1_" gradientUnits="userSpaceOnUse" x1="215.8466" y1="-477.8005" x2="482.1327" y2="-477.8005" gradientTransform="matrix(1 0 0 -1 -99.4931 -395.1363)">
			<stop  offset="0" style="stop-color:#7CCCCB"/>
			<stop  offset="1" style="stop-color:#F05922"/>
		</linearGradient>
		<path class="st1" d="M117.01,56.43c6.39,5.63,14,9.77,22.06,12.32c8.06,2.56,16.59,3.57,24.98,2.99
			c8.38-0.58,16.65-2.73,24.09-6.51c3.71-1.89,7.21-4.17,10.39-6.83c3.18-2.66,6.04-5.68,8.5-8.99l0.9-1.26
			c0.3-0.42,0.61-0.83,0.88-1.27c0.56-0.85,1.08-1.73,1.58-2.63c1-1.79,1.87-3.65,2.61-5.55c0.74-1.9,1.34-3.85,1.79-5.82
			s0.74-3.97,0.8-5.94c0.02-0.99,0.02-1.97-0.06-2.94c-0.02-0.49-0.1-0.97-0.16-1.45c-0.03-0.24-0.06-0.48-0.1-0.72l-0.14-0.7
			c-0.2-0.92-0.46-1.81-0.81-2.56c-0.09-0.19-0.17-0.37-0.27-0.53c-0.09-0.18-0.2-0.32-0.29-0.47c-0.21-0.28-0.41-0.5-0.61-0.66
			c-0.2-0.14-0.36-0.22-0.52-0.25c-0.16-0.04-0.33-0.04-0.56,0c-0.46,0.08-1.1,0.4-1.73,0.89c-0.63,0.5-1.26,1.14-1.84,1.86
			c-0.29,0.36-0.57,0.74-0.84,1.13c-0.14,0.19-0.27,0.4-0.4,0.6l-0.2,0.3l-0.19,0.33c-0.51,0.88-1.05,1.73-1.52,2.65
			c-0.24,0.45-0.49,0.9-0.72,1.35l-0.67,1.39l-0.33,0.69l-0.31,0.71l-0.62,1.42c-0.2,0.48-0.39,0.96-0.58,1.44
			c-0.19,0.48-0.39,0.96-0.56,1.45c-1.45,3.9-2.67,7.92-3.78,12c-1.11,4.09-2.12,8.23-3.19,12.4l-1.62,6.22
			c-0.53,2.06-1.06,4.13-1.57,6.19c-1.01,4.13-1.96,8.27-2.81,12.41c-0.84,4.14-1.56,8.3-2.14,12.46c-0.58,4.17-0.95,8.3-1.26,12.57
			c-0.33,4.26-0.64,8.6-1.21,13c-0.61,4.39-1.46,8.85-2.91,13.25c-0.19,0.55-0.4,1.09-0.6,1.64c-0.21,0.54-0.39,1.1-0.64,1.63
			l-0.71,1.61l-0.18,0.4c-0.06,0.13-0.13,0.26-0.2,0.4l-0.41,0.79l-0.41,0.79l-0.21,0.39l-0.1,0.2l-0.12,0.21l-0.51,0.84
			c-0.17,0.28-0.36,0.54-0.54,0.81c-0.36,0.54-0.77,1.04-1.17,1.55c-0.21,0.25-0.42,0.48-0.63,0.73l-0.32,0.36l-0.34,0.34
			c-0.88,0.93-1.86,1.75-2.86,2.54c-1.02,0.77-2.09,1.46-3.2,2.07c-0.28,0.16-0.57,0.29-0.85,0.44c-0.28,0.14-0.57,0.29-0.86,0.41
			l-0.88,0.38l-0.9,0.34c-0.3,0.12-0.6,0.22-0.91,0.31s-0.61,0.2-0.93,0.28c-0.63,0.16-1.26,0.32-1.9,0.43
			c-0.64,0.13-1.3,0.19-1.95,0.27c-0.66,0.04-1.32,0.1-1.99,0.08c-0.67,0.01-1.34-0.05-2.01-0.1c-0.34-0.03-0.67-0.09-1.01-0.14
			c-0.17-0.03-0.34-0.05-0.5-0.08l-0.5-0.11c-2.67-0.57-5.27-1.82-7.39-3.55l-0.78-0.67c-0.26-0.22-0.48-0.48-0.73-0.71
			c-0.49-0.47-0.9-1-1.33-1.51c-0.22-0.26-0.39-0.53-0.59-0.8c-0.19-0.27-0.39-0.53-0.56-0.81l-0.5-0.84
			c-0.08-0.14-0.17-0.28-0.25-0.42l-0.22-0.42c-1.18-2.24-2.03-4.73-2.4-7.28c-0.38-2.56-0.25-5.16,0.22-7.61
			c0.47-2.47,1.31-4.79,2.38-6.94c2.13-4.31,5.09-7.97,8.42-11.13c1.67-1.58,3.44-3.03,5.31-4.34l0.7-0.49l0.72-0.47
			c0.47-0.32,0.97-0.61,1.46-0.91c0.49-0.29,1-0.58,1.5-0.85l1.51-0.79c2.04-1.01,4.16-1.86,6.35-2.54c2.18-0.68,4.43-1.18,6.7-1.45
			c2.28-0.27,4.58-0.32,6.87-0.11c2.28,0.21,4.55,0.68,6.71,1.41s4.24,1.72,6.14,2.93c1.91,1.22,3.66,2.65,5.2,4.25
			c1.55,1.6,2.92,3.35,4.1,5.2c1.17,1.86,2.17,3.8,3,5.8c0.08,0.2-0.01,0.43-0.22,0.52c-0.18,0.08-0.39,0-0.49-0.16l0,0
			c-1.08-1.83-2.26-3.59-3.6-5.21c-1.32-1.63-2.78-3.12-4.37-4.43c-3.18-2.63-6.87-4.52-10.77-5.43c-3.89-0.94-7.96-0.92-11.86-0.14
			c-1.95,0.39-3.87,0.96-5.73,1.69s-3.67,1.61-5.41,2.61l-1.29,0.78c-0.43,0.26-0.84,0.54-1.25,0.82c-0.41,0.29-0.82,0.56-1.22,0.87
			l-0.6,0.45l-0.59,0.47c-1.56,1.24-3.05,2.59-4.41,4.04c-2.72,2.89-5.07,6.13-6.57,9.59c-1.53,3.44-2.14,7.07-1.52,10.42
			c0.31,1.67,0.91,3.28,1.77,4.8l0.15,0.29c0.06,0.09,0.12,0.18,0.17,0.27l0.34,0.53c0.11,0.18,0.25,0.33,0.37,0.5
			c0.13,0.16,0.24,0.34,0.38,0.48c0.27,0.29,0.52,0.61,0.82,0.87c0.15,0.13,0.28,0.28,0.43,0.4l0.45,0.36
			c0.62,0.45,1.25,0.88,1.95,1.17c0.69,0.31,1.41,0.55,2.18,0.68l0.28,0.06l0.29,0.04c0.2,0.02,0.39,0.06,0.58,0.07
			c0.4,0.02,0.79,0.06,1.2,0.04c0.4,0.01,0.81-0.04,1.22-0.07c0.41-0.07,0.82-0.1,1.23-0.2c3.28-0.65,6.52-2.45,8.91-4.92l0.23-0.23
			l0.21-0.24c0.14-0.16,0.29-0.32,0.42-0.48c0.26-0.34,0.54-0.66,0.77-1.01c0.12-0.17,0.25-0.34,0.36-0.52l0.33-0.53l0.08-0.14
			l0.08-0.16l0.17-0.32l0.34-0.63c0.47-0.83,0.85-1.72,1.25-2.6c0.21-0.43,0.37-0.9,0.55-1.35c0.17-0.46,0.36-0.91,0.52-1.37
			c1.3-3.72,2.19-7.67,2.85-11.75s1.11-8.28,1.57-12.55c0.23-2.14,0.47-4.29,0.75-6.46l0.21-1.63l0.24-1.62
			c0.15-1.08,0.34-2.16,0.51-3.24c1.47-8.61,3.5-17.05,5.74-25.38c0.56-2.08,1.13-4.16,1.71-6.23l1.74-6.18
			c1.14-4.1,2.25-8.26,3.47-12.42c1.23-4.16,2.58-8.32,4.2-12.41c0.19-0.51,0.42-1.02,0.63-1.53c0.22-0.51,0.43-1.02,0.65-1.53
			l0.7-1.51l0.35-0.76l0.38-0.75l0.76-1.49c0.26-0.49,0.54-0.98,0.81-1.47c0.53-0.99,1.15-1.93,1.74-2.89l0.23-0.36l0.25-0.36
			c0.17-0.24,0.33-0.49,0.51-0.72c0.35-0.48,0.72-0.95,1.11-1.41c0.79-0.92,1.68-1.82,2.75-2.61c0.55-0.39,1.12-0.77,1.8-1.08
			c0.67-0.31,1.4-0.58,2.24-0.69c0.83-0.12,1.75-0.08,2.62,0.16s1.67,0.69,2.31,1.21c0.63,0.53,1.13,1.12,1.54,1.72
			c0.19,0.3,0.39,0.6,0.54,0.9c0.17,0.3,0.3,0.6,0.43,0.91c0.52,1.21,0.83,2.4,1.05,3.58l0.15,0.88c0.04,0.29,0.07,0.58,0.1,0.88
			c0.06,0.58,0.14,1.17,0.15,1.75c0.07,1.17,0.04,2.32-0.01,3.47c-0.13,2.3-0.52,4.55-1.08,6.75c-0.56,2.19-1.28,4.33-2.14,6.39
			c-0.86,2.07-1.87,4.07-3,5.99c-0.57,0.96-1.16,1.91-1.81,2.83c-0.31,0.47-0.65,0.91-0.98,1.35l-1.01,1.33
			c-2.75,3.48-5.9,6.64-9.38,9.37c-3.47,2.74-7.25,5.06-11.23,6.94c-7.96,3.76-16.66,5.76-25.37,6.08
			c-8.71,0.32-17.46-0.99-25.64-3.87c-8.17-2.89-15.78-7.39-22.06-13.32c-0.16-0.15-0.17-0.4-0.02-0.56
			C116.61,56.3,116.85,56.29,117.01,56.43z"/>
		
			<linearGradient id="SVGID_2_" gradientUnits="userSpaceOnUse" x1="215.851" y1="-498.3276" x2="482.1371" y2="-498.3276" gradientTransform="matrix(1 0 0 -1 -99.4931 -395.1363)">
			<stop  offset="0" style="stop-color:#7CCCCB"/>
			<stop  offset="1" style="stop-color:#F05922"/>
		</linearGradient>
		<path class="st2" d="M236.87,89.1c-1.35-0.16-2.65-0.21-3.9-0.12c-0.63,0.06-1.24,0.13-1.83,0.27c-0.59,0.12-1.16,0.28-1.71,0.5
			c-0.27,0.09-0.54,0.21-0.8,0.32c-0.13,0.06-0.26,0.13-0.39,0.19c-0.13,0.06-0.25,0.13-0.38,0.2c-0.5,0.27-0.96,0.58-1.41,0.91
			c-0.45,0.32-0.86,0.7-1.25,1.07c-0.39,0.39-0.75,0.79-1.1,1.22c-1.35,1.71-2.33,3.73-2.96,5.84c-0.59,2.04-0.84,4.32-0.76,6.49
			c0.01,0.54,0.06,1.08,0.13,1.59c0.06,0.52,0.15,1.02,0.27,1.49c0.12,0.47,0.24,0.92,0.4,1.3c0.16,0.38,0.33,0.71,0.49,0.95
			s0.31,0.37,0.38,0.43c0.08,0.07,0.08,0.06,0.23,0.1c0.27,0.09,1.01,0.06,1.82-0.2c0.41-0.13,0.84-0.29,1.28-0.5
			s0.88-0.46,1.33-0.73c0.44-0.28,0.88-0.59,1.32-0.91c0.21-0.17,0.43-0.33,0.64-0.51l0.32-0.26l0.31-0.28
			c1.68-1.49,3.2-3.29,4.56-5.26l0.36-0.52c0.87-1.26,2.6-1.58,3.87-0.71c0.78,0.53,1.2,1.41,1.2,2.28c0,0.58,0.03,1.16,0.12,1.74
			c0.02,0.15,0.05,0.29,0.08,0.43c0.02,0.15,0.05,0.29,0.1,0.43c0.04,0.14,0.07,0.29,0.11,0.43l0.14,0.42
			c0.2,0.55,0.44,1.1,0.74,1.62c0.31,0.51,0.66,1,1.08,1.46l0.32,0.33c0.11,0.11,0.23,0.2,0.35,0.3c0.11,0.11,0.24,0.2,0.37,0.29
			c0.13,0.1,0.25,0.19,0.39,0.27c0.53,0.35,1.12,0.63,1.77,0.84c1.29,0.43,2.76,0.54,4.3,0.39c-1.26,0.89-2.82,1.47-4.51,1.59
			c-0.84,0.05-1.72,0-2.57-0.21c-0.86-0.2-1.71-0.51-2.49-0.95c-0.79-0.44-1.53-0.97-2.2-1.59c-0.66-0.62-1.25-1.33-1.77-2.08
			c-0.52-0.76-0.93-1.58-1.29-2.42c-0.35-0.85-0.6-1.74-0.79-2.65l5.43,1.05c-1.13,2.64-2.64,5.17-4.63,7.44
			c-0.99,1.13-2.1,2.19-3.36,3.15c-1.26,0.95-2.67,1.8-4.32,2.42c-0.83,0.31-1.72,0.56-2.7,0.69c-0.98,0.13-2.06,0.15-3.2-0.07
			c-0.57-0.1-1.16-0.29-1.73-0.53c-0.28-0.13-0.57-0.27-0.84-0.42c-0.26-0.16-0.53-0.32-0.77-0.5c-0.98-0.71-1.72-1.57-2.29-2.42
			c-0.57-0.85-0.97-1.71-1.28-2.55c-0.3-0.84-0.52-1.66-0.68-2.47c-0.31-1.62-0.39-3.19-0.34-4.72c0.06-1.54,0.25-3.04,0.59-4.53
			c0.16-0.74,0.37-1.48,0.61-2.2c0.24-0.73,0.52-1.45,0.85-2.16c0.64-1.39,1.43-2.7,2.35-3.92c0.92-1.22,2-2.34,3.21-3.3
			c0.61-0.48,1.25-0.92,1.92-1.3c0.67-0.38,1.36-0.72,2.08-1c1.43-0.55,2.95-0.86,4.44-0.9c0.74-0.02,1.48,0.03,2.2,0.12
			c0.72,0.1,1.42,0.28,2.09,0.48C234.54,87.68,235.78,88.31,236.87,89.1z"/>
		
			<linearGradient id="SVGID_3_" gradientUnits="userSpaceOnUse" x1="215.851" y1="-469.7657" x2="482.1371" y2="-469.7657" gradientTransform="matrix(1 0 0 -1 -99.4931 -395.1363)">
			<stop  offset="0" style="stop-color:#7CCCCB"/>
			<stop  offset="1" style="stop-color:#F05922"/>
		</linearGradient>
		<path class="st3" d="M265.17,28.9c-0.29,5.87-0.77,11.72-1.25,17.55c-0.49,5.83-0.98,11.64-1.4,17.43
			c-0.21,2.9-0.41,5.79-0.56,8.68c-0.1,1.44-0.15,2.89-0.22,4.33s-0.09,2.88-0.16,4.32c-0.05,1.44-0.07,2.88-0.1,4.32l-0.02,4.31
			l0.02,2.15l0.01,1.07l0.01,0.53l0.02,0.51c0.04,1.36,0.14,2.73,0.29,4.08c0.28,2.69,0.77,5.35,1.57,7.73
			c0.4,1.18,0.87,2.3,1.43,3.26c0.56,0.95,1.19,1.75,1.85,2.28c0.67,0.52,1.32,0.82,2.11,0.96c0.78,0.14,1.73,0.09,2.77-0.16
			c0.25-0.04,0.53-0.15,0.79-0.22l0.4-0.12l0.41-0.16l0.41-0.16c0.14-0.05,0.28-0.1,0.39-0.16c0.24-0.12,0.47-0.23,0.71-0.34
			c0.92-0.5,1.77-1.14,2.52-1.91c0.75-0.77,1.41-1.66,1.95-2.66c0.53-1,0.95-2.09,1.26-3.23c0.3-1.14,0.5-2.32,0.53-3.52
			c0.01-0.15,0.01-0.3,0.01-0.45v-0.45c0.01-0.3-0.02-0.6-0.04-0.89l-0.03-0.45c-0.01-0.15-0.04-0.29-0.05-0.44
			c-0.04-0.29-0.06-0.6-0.13-0.88c-0.39-2.35-1.41-4.51-2.85-6.21c-1.44-1.73-3.46-2.83-5.76-3.41l2.1-5.27c0,0-0.01,0,0,0.01
			l0.09,0.06c0.06,0.04,0.11,0.07,0.18,0.11l0.44,0.24c0.15,0.08,0.32,0.16,0.48,0.24c0.16,0.08,0.32,0.16,0.49,0.23
			c0.35,0.14,0.68,0.29,1.04,0.43c0.36,0.13,0.72,0.26,1.08,0.39c0.36,0.14,0.74,0.23,1.11,0.35c0.38,0.11,0.74,0.24,1.13,0.33
			l1.15,0.29l0.58,0.14l0.59,0.11l1.18,0.23l0.59,0.12l0.6,0.09c0.8,0.11,1.6,0.25,2.4,0.35l2.44,0.25c0.41,0.05,0.82,0.07,1.23,0.1
			l1.23,0.07c0.82,0.05,1.64,0.11,2.47,0.11l2.48,0.05c0.21,0,0.42,0.01,0.62,0.01l0.62-0.01l1.25-0.02l2.5-0.04l5.02-0.26
			c1.67-0.14,3.35-0.27,5.04-0.38c-1.61,0.5-3.24,0.97-4.87,1.44c-0.82,0.22-1.64,0.4-2.47,0.6l-2.48,0.58L299.85,88l-1.26,0.23
			l-0.63,0.11c-0.21,0.04-0.42,0.06-0.63,0.09c-1.69,0.21-3.39,0.48-5.11,0.58c-3.43,0.31-6.91,0.32-10.42-0.01l-0.66-0.06
			l-0.66-0.09l-1.32-0.18c-0.44-0.05-0.88-0.15-1.33-0.23c-0.44-0.09-0.88-0.16-1.33-0.27l-1.33-0.34
			c-0.44-0.13-0.89-0.28-1.34-0.42c-0.22-0.06-0.45-0.16-0.67-0.24c-0.23-0.09-0.45-0.17-0.68-0.26l-0.7-0.31
			c-0.12-0.05-0.25-0.12-0.37-0.19l-0.19-0.1l-0.27-0.16c-1.37-0.8-1.82-2.56-1.02-3.92c0.61-1.04,1.77-1.55,2.89-1.39l0.23,0.04
			c1.72,0.25,3.45,0.73,5.07,1.52c0.4,0.21,0.81,0.4,1.19,0.63l1.14,0.74c0.36,0.27,0.71,0.55,1.07,0.84
			c0.18,0.14,0.34,0.29,0.51,0.45l0.49,0.47c0.34,0.3,0.62,0.65,0.92,0.99c0.15,0.17,0.3,0.34,0.44,0.51l0.4,0.54l0.39,0.54
			c0.13,0.18,0.24,0.38,0.36,0.56c0.23,0.38,0.48,0.75,0.67,1.15c0.2,0.39,0.41,0.78,0.58,1.19c0.17,0.4,0.34,0.81,0.5,1.22
			l0.42,1.24c0.13,0.42,0.23,0.84,0.34,1.26c0.12,0.42,0.18,0.85,0.27,1.27c0.04,0.21,0.08,0.43,0.11,0.64l0.08,0.64
			c0.05,0.43,0.1,0.86,0.11,1.29l0.03,0.65c0.01,0.22,0.02,0.43,0.01,0.65c0.02,1.73-0.17,3.46-0.55,5.16
			c-0.38,1.7-0.94,3.38-1.75,4.98c-0.8,1.6-1.84,3.11-3.09,4.47c-1.25,1.35-2.73,2.54-4.36,3.47c-0.42,0.21-0.84,0.42-1.26,0.62
			c-0.21,0.11-0.42,0.19-0.62,0.27l-0.61,0.24l-0.61,0.24l-0.64,0.2c-0.44,0.13-0.85,0.28-1.31,0.37c-1.79,0.44-3.81,0.64-5.92,0.29
			c-0.52-0.11-1.05-0.19-1.56-0.37c-0.26-0.08-0.51-0.17-0.77-0.25c-0.25-0.1-0.5-0.21-0.74-0.32c-0.99-0.44-1.88-1.04-2.7-1.69
			c-1.61-1.32-2.77-2.9-3.67-4.47c-0.89-1.58-1.54-3.18-2.03-4.77c-0.98-3.19-1.45-6.33-1.7-9.45c-0.11-1.56-0.15-3.12-0.14-4.68
			l0.01-0.58l0.02-0.56l0.04-1.12l0.07-2.23c0.06-1.49,0.17-2.97,0.26-4.45c0.12-1.48,0.23-2.96,0.36-4.44
			c0.28-2.95,0.63-5.89,1.02-8.82c0.21-1.46,0.41-2.93,0.65-4.38c0.23-1.46,0.45-2.91,0.72-4.36c1.01-5.8,2.21-11.56,3.52-17.28
			C262.12,40.24,263.56,34.56,265.17,28.9z"/>
		
			<linearGradient id="SVGID_4_" gradientUnits="userSpaceOnUse" x1="215.851" y1="-494.111" x2="482.1371" y2="-494.111" gradientTransform="matrix(1 0 0 -1 -99.4931 -395.1363)">
			<stop  offset="0" style="stop-color:#7CCCCB"/>
			<stop  offset="1" style="stop-color:#F05922"/>
		</linearGradient>
		<path class="st4" d="M325.72,99.4c-0.05,1.79-0.04,3.57-0.15,5.49c-0.05,0.47-0.06,0.97-0.13,1.46s-0.14,0.99-0.24,1.5
			c-0.12,0.49-0.25,1-0.4,1.51c-0.19,0.49-0.36,1.01-0.59,1.5c-0.92,1.98-2.54,3.75-4.57,4.83c-2.02,1.09-4.39,1.53-6.62,1.25
			c-2.25-0.26-4.32-1.26-6.01-2.52c-1.69-1.28-3.03-2.81-4.15-4.39c-1.12-1.59-2.02-3.27-2.72-5.06c-0.7-1.78-1.25-3.65-1.63-5.59
			c-0.34-1.94-0.49-4.02-0.12-6.13c0.17-1.06,0.49-2.11,0.93-3.13l0.36-0.76c0.12-0.25,0.24-0.51,0.4-0.74l0.44-0.72l0.23-0.36
			c0.08-0.12,0.17-0.23,0.25-0.35c1.33-1.86,3.12-3.47,5.2-4.58c2.08-1.11,4.46-1.73,6.84-1.68c2.37,0.04,4.75,0.68,6.78,1.88
			c1.02,0.59,1.92,1.37,2.68,2.23c0.2,0.2,0.36,0.45,0.54,0.67c0.17,0.23,0.33,0.47,0.49,0.7c0.3,0.48,0.55,0.99,0.8,1.47
			c0.21,0.51,0.4,1.03,0.58,1.52c0.14,0.52,0.26,1.03,0.38,1.53l0.23,1.5c0.06,0.49,0.07,0.99,0.12,1.46
			C325.75,95.82,325.71,97.61,325.72,99.4z M324.93,99.4c-0.04-1.72-0.46-3.45-1.32-4.91c-0.84-1.47-2.11-2.62-3.38-3.35l-0.95-0.5
			c-0.16-0.07-0.33-0.13-0.48-0.2l-0.23-0.1c-0.07-0.04-0.15-0.06-0.23-0.09c-0.62-0.21-1.2-0.41-1.78-0.54
			c-1.14-0.3-2.29-0.42-3.43-0.36c-1.14,0.07-2.26,0.3-3.34,0.71c-1.08,0.4-2.13,1.01-3.03,1.87c-0.91,0.86-1.62,1.95-2.29,3.19
			c-0.66,1.25-1.24,2.68-1.63,4.26c-0.34,1.57-0.47,3.23-0.15,4.81c0.31,1.58,1.03,3.09,2.15,4.22c0.56,0.56,1.19,1.04,1.89,1.38
			c0.35,0.17,0.69,0.34,1.07,0.43c0.18,0.06,0.36,0.11,0.54,0.16c0.19,0.04,0.38,0.07,0.56,0.1c1.48,0.25,2.91,0.09,4.18-0.14
			c1.28-0.26,2.43-0.59,3.58-1s2.36-0.88,3.63-1.64c1.26-0.76,2.53-1.91,3.38-3.38C324.52,102.86,324.93,101.13,324.93,99.4z"/>
		
			<linearGradient id="SVGID_5_" gradientUnits="userSpaceOnUse" x1="215.851" y1="-496.7743" x2="482.1371" y2="-496.7743" gradientTransform="matrix(1 0 0 -1 -99.4931 -395.1363)">
			<stop  offset="0" style="stop-color:#7CCCCB"/>
			<stop  offset="1" style="stop-color:#F05922"/>
		</linearGradient>
		<path class="st5" d="M338.21,89.35c-0.23,1.42-0.44,2.83-0.6,4.25c-0.17,1.41-0.31,2.83-0.39,4.24c-0.16,2.81-0.16,5.62,0.3,8.23
			c0.22,1.3,0.56,2.54,1.06,3.58s1.14,1.86,1.87,2.32c0.72,0.48,1.56,0.7,2.58,0.73c0.5,0.01,1.05-0.01,1.6-0.12l0.42-0.07
			c0.14-0.02,0.28-0.04,0.41-0.08l0.77-0.21c1-0.33,1.81-0.86,2.47-1.53c0.65-0.68,1.15-1.5,1.56-2.45s0.75-2,1.06-3.12
			s0.59-2.32,0.85-3.56c0.27-1.24,0.49-2.53,0.68-3.86c0.06-0.33,0.09-0.66,0.14-1c0.05-0.33,0.1-0.67,0.14-1.01l0.26-2.05
			c0.36-2.77,0.63-5.61,1.12-8.64c0.04-0.23,0.26-0.39,0.49-0.35c0.12,0.02,0.22,0.08,0.28,0.17l0,0c0.45,0.64,0.84,1.3,1.2,1.98
			c0.36,0.68,0.69,1.37,0.99,2.07c0.6,1.4,1.09,2.85,1.48,4.33c0.77,2.96,1.19,6.05,1.04,9.27c-0.08,1.61-0.31,3.25-0.78,4.89
			s-1.19,3.28-2.22,4.82c-0.28,0.38-0.55,0.76-0.84,1.12c-0.32,0.36-0.62,0.72-0.95,1.06c-0.35,0.33-0.7,0.67-1.07,0.98
			c-0.39,0.3-0.77,0.6-1.17,0.87c-1.62,1.09-3.46,1.79-5.26,2.14c-0.45,0.07-0.9,0.13-1.34,0.19c-0.22,0.04-0.44,0.04-0.66,0.05
			l-0.66,0.03c-0.87,0.04-1.77-0.02-2.69-0.16c-0.92-0.15-1.86-0.42-2.77-0.83s-1.78-0.97-2.51-1.65c-0.73-0.69-1.34-1.47-1.8-2.28
			s-0.8-1.65-1.05-2.48c-0.48-1.66-0.63-3.27-0.65-4.83c-0.01-1.56,0.13-3.08,0.33-4.56c0.21-1.48,0.49-2.94,0.85-4.37
			c0.35-1.43,0.75-2.84,1.2-4.23c0.46-1.39,0.94-2.76,1.48-4.1c0.08-0.2,0.31-0.3,0.52-0.22C338.14,88.99,338.24,89.18,338.21,89.35
			z"/>
		
			<linearGradient id="SVGID_6_" gradientUnits="userSpaceOnUse" x1="215.851" y1="-538.8571" x2="482.1371" y2="-538.8571" gradientTransform="matrix(1 0 0 -1 -99.4931 -395.1363)">
			<stop  offset="0" style="stop-color:#7CCCCB"/>
			<stop  offset="1" style="stop-color:#F05922"/>
		</linearGradient>
		<path class="st6" d="M355.24,84.73c1.49,2.37,2.39,5.04,2.99,7.73c0.6,2.7,0.92,5.44,1.13,8.18c0.2,2.74,0.27,5.47,0.33,8.19
			c0.03,1.36,0.06,2.72,0.11,4.06l0.18,4.07c0.45,10.9,0.43,21.81,0.3,32.7c-0.02,1.35-0.04,2.75-0.1,4.13s-0.14,2.76-0.24,4.14
			c-0.2,2.76-0.5,5.51-0.88,8.25c-0.39,2.75-0.87,5.49-1.48,8.21c-0.61,2.73-1.34,5.44-2.27,8.12s-2.04,5.33-3.46,7.88
			c-1.42,2.55-3.16,5.03-5.42,7.17c-1.13,1.07-2.39,2.04-3.78,2.85c-1.39,0.81-2.91,1.45-4.49,1.87s-3.21,0.62-4.81,0.63
			c-1.6,0-3.18-0.19-4.7-0.51c-0.38-0.07-0.76-0.17-1.13-0.26s-0.75-0.19-1.11-0.31l-0.55-0.17l-0.27-0.08
			c-0.09-0.03-0.2-0.07-0.29-0.11l-0.59-0.22c-0.2-0.07-0.4-0.15-0.59-0.24c-1.56-0.68-3.02-1.64-4.27-2.78
			c-1.26-1.14-2.33-2.44-3.2-3.81c-0.88-1.37-1.57-2.81-2.13-4.26c-1.12-2.91-1.73-5.88-2.06-8.82c-0.32-2.95-0.37-5.89-0.17-8.83
			c0.03-0.37,0.06-0.74,0.1-1.1c0.04-0.37,0.07-0.74,0.13-1.12c0.12-0.76,0.2-1.52,0.37-2.27l0.23-1.13
			c0.08-0.38,0.19-0.74,0.29-1.12c0.1-0.37,0.2-0.74,0.3-1.11l0.36-1.09c0.99-2.9,2.35-5.66,4-8.17c1.64-2.52,3.53-4.82,5.57-6.93
			l0.38-0.4l0.39-0.38l0.78-0.76c0.52-0.51,1.06-0.99,1.6-1.48c0.55-0.47,1.09-0.94,1.65-1.41c0.59-0.46,1.16-0.95,1.76-1.38
			c1.19-0.9,2.44-1.69,3.69-2.46c0.63-0.36,1.26-0.75,1.9-1.09l0.96-0.52l0.97-0.49c0.64-0.33,1.3-0.62,1.95-0.93
			c0.65-0.29,1.3-0.59,1.96-0.86c1.31-0.56,2.61-1.07,3.92-1.56c5.23-1.94,10.42-3.48,15.37-5.34c2.48-0.93,4.88-1.95,7.19-3.13
			c1.15-0.6,2.28-1.23,3.37-1.92c0.28-0.16,0.54-0.35,0.81-0.53l0.4-0.27l0.1-0.07l0.05-0.03c0.01,0,0.05-0.04,0.03-0.02
			c-0.04,0.03-0.12,0.11-0.12,0.11l0.03-0.03c0.02-0.02,0.05-0.04,0.07-0.07c0.44-0.42,0.91-0.9,1.35-1.37
			c1.8-1.91,3.47-3.97,4.89-6.17c0.7-1.1,1.33-2.25,1.78-3.45c0.47-1.2,0.75-2.46,0.66-3.74v-0.02c-0.02-0.22,0.15-0.41,0.37-0.42
			c0.19-0.01,0.35,0.11,0.41,0.28c0.43,1.4,0.37,2.91,0.12,4.32c-0.26,1.42-0.73,2.78-1.27,4.09c-1.1,2.63-2.55,5.05-4.16,7.37
			c-0.41,0.58-0.82,1.14-1.29,1.73l-0.1,0.12l-0.06,0.06c-0.03,0.03-0.14,0.14-0.21,0.2l-0.22,0.19l-0.4,0.35
			c-0.27,0.23-0.53,0.48-0.81,0.7c-0.55,0.45-1.11,0.9-1.69,1.32c-0.57,0.44-1.16,0.83-1.74,1.24c-1.18,0.8-2.39,1.55-3.62,2.24
			c-1.23,0.7-2.47,1.37-3.73,1.99c-1.25,0.63-2.51,1.21-3.77,1.79c-1.26,0.57-2.52,1.12-3.78,1.66c-2.51,1.09-4.99,2.13-7.4,3.23
			c-2.4,1.11-4.76,2.23-6.96,3.51c-1.12,0.62-2.18,1.3-3.23,1.98c-1.03,0.71-2.05,1.43-2.99,2.21c-0.49,0.37-0.94,0.79-1.41,1.18
			c-0.47,0.42-0.94,0.86-1.4,1.29c-0.45,0.45-0.92,0.88-1.36,1.33l-0.66,0.68l-0.33,0.34l-0.32,0.35c-1.7,1.84-3.25,3.77-4.59,5.81
			c-1.34,2.03-2.43,4.17-3.26,6.39l-0.31,0.83l-0.26,0.85c-0.08,0.28-0.19,0.56-0.25,0.85l-0.21,0.86
			c-0.16,0.57-0.23,1.16-0.35,1.74c-0.06,0.29-0.1,0.59-0.14,0.9c-0.05,0.31-0.08,0.62-0.12,0.92c-0.3,2.47-0.39,4.99-0.24,7.46
			c0.15,2.46,0.54,4.89,1.26,7.1c0.73,2.2,1.8,4.17,3.27,5.6c0.73,0.71,1.55,1.3,2.47,1.75c0.11,0.06,0.23,0.11,0.35,0.16l0.35,0.15
			c0.06,0.03,0.11,0.05,0.18,0.08l0.21,0.07l0.42,0.15c0.28,0.1,0.57,0.19,0.85,0.27s0.57,0.17,0.85,0.23
			c2.27,0.57,4.53,0.67,6.65,0.18c2.11-0.48,4.09-1.57,5.84-3.11s3.26-3.51,4.55-5.66c1.29-2.16,2.38-4.5,3.31-6.93
			c0.95-2.42,1.74-4.94,2.42-7.49c0.68-2.55,1.25-5.15,1.73-7.77c0.48-2.62,0.87-5.27,1.17-7.92c0.15-1.33,0.28-2.66,0.39-3.99
			c0.11-1.33,0.18-2.65,0.26-4.02c0.62-10.84,1.1-21.68,1.17-32.52l0.02-4.08c0.02-1.37,0.06-2.73,0.09-4.09
			c0.07-2.72,0.13-5.42,0.07-8.11s-0.22-5.38-0.66-8.02c-0.44-2.63-1.17-5.23-2.46-7.56V85.1c-0.11-0.19-0.04-0.43,0.15-0.54
			C354.9,84.49,355.13,84.55,355.24,84.73z"/>
	</g>
</g>
</svg>
